<svg xmlns="http://www.w3.org/2000/svg" xmlns:xlink="http://www.w3.org/1999/xlink" viewBox="0 0 6976.44 6780.38"><defs><style>.cls-1{fill:none;}.cls-2{isolation:isolate;}.cls-3{fill:#fff;}.cls-4{fill:#fefefe;}.cls-5{opacity:0.25;}.cls-6{fill:#371a45;}.cls-7{fill:#139613;}.cls-8{fill:#00bdff;}.cls-9{clip-path:url(#clip-path);}.cls-10{fill:#5ce205;}.cls-11{fill:#54a520;}.cls-12{opacity:0.4;}.cls-13{opacity:0.6;}.cls-14{opacity:0.35;}.cls-15{opacity:0.2;mix-blend-mode:color-burn;}.cls-16{fill:#000072;}.cls-17{fill:#220f2d;}.cls-18{opacity:0.5;}</style><clipPath id="clip-path" transform="translate(0 328.09)"><circle class="cls-1" cx="1887.17" cy="959.23" r="863.27"/></clipPath></defs><g class="cls-2"><g id="Capa_2" data-name="Capa 2"><g id="Layer_1" data-name="Layer 1"><path class="cls-3" d="M1545.59,6335.26c1,10.21-19.09,21.1-49.86,29a37,37,0,0,0-27.75,33.59c-1.92,31.7-8.83,53.47-19,54.44s-21.09-19.1-29-49.87a37,37,0,0,0-33.59-27.74c-31.73-1.92-53.54-8.82-54.51-19s19.12-21.16,49.9-29a37,37,0,0,0,27.78-33.61c1.92-31.74,8.83-53.5,19-54.47s21.09,19.09,29,49.9a37,37,0,0,0,33.63,27.76C1522.87,6318.09,1544.62,6325,1545.59,6335.26Z" transform="translate(0 328.09)"/><path class="cls-3" d="M5198.94,133.56c0,9-18.51,16.91-46.17,21.25A32.64,32.64,0,0,0,5125.62,182c-4.34,27.66-12.21,46.17-21.25,46.17s-16.9-18.51-21.24-46.17A32.64,32.64,0,0,0,5056,154.81c-27.68-4.34-46.24-12.21-46.24-21.25s18.54-17,46.2-21.27a32.65,32.65,0,0,0,27.19-27.17c4.34-27.68,12.21-46.2,21.24-46.2s16.91,18.52,21.25,46.21a32.65,32.65,0,0,0,27.19,27.16C5180.44,116.59,5198.94,124.48,5198.94,133.56Z" transform="translate(0 328.09)"/><path class="cls-3" d="M6448.38,2672.34c0,9-18.52,16.91-46.17,21.25a32.63,32.63,0,0,0-27.15,27.15c-4.34,27.65-12.22,46.17-21.25,46.17s-16.91-18.52-21.25-46.17a32.63,32.63,0,0,0-27.15-27.15c-27.68-4.34-46.24-12.22-46.24-21.25s18.55-17,46.21-21.28a32.63,32.63,0,0,0,27.19-27.16c4.33-27.68,12.21-46.2,21.24-46.2s16.91,18.52,21.25,46.2a32.64,32.64,0,0,0,27.18,27.17C6429.88,2655.37,6448.38,2663.26,6448.38,2672.34Z" transform="translate(0 328.09)"/><path class="cls-3" d="M3009.65,96.69c0,9.23-18.92,17.28-47.18,21.71a33.32,33.32,0,0,0-27.73,27.74c-4.43,28.25-12.48,47.17-21.71,47.17s-17.28-18.92-21.71-47.17a33.33,33.33,0,0,0-27.74-27.74c-28.28-4.43-47.24-12.48-47.24-21.71s18.95-17.34,47.2-21.74a33.33,33.33,0,0,0,27.78-27.75C2895.75,18.91,2903.8,0,2913,0s17.27,18.92,21.71,47.2A33.33,33.33,0,0,0,2962.51,75C2990.75,79.35,3009.65,87.41,3009.65,96.69Z" transform="translate(0 328.09)"/><path class="cls-3" d="M3298,5942.92c0,9.23-18.92,17.27-47.18,21.7a33.34,33.34,0,0,0-27.73,27.74c-4.43,28.26-12.48,47.18-21.71,47.18s-17.28-18.92-21.71-47.18a33.33,33.33,0,0,0-27.74-27.73c-28.28-4.44-47.24-12.48-47.24-21.71s18.95-17.34,47.2-21.74a33.34,33.34,0,0,0,27.78-27.75c4.43-28.29,12.48-47.2,21.71-47.2s17.27,18.91,21.71,47.2a33.34,33.34,0,0,0,27.77,27.75C3279.12,5925.58,3298,5933.64,3298,5942.92Z" transform="translate(0 328.09)"/><circle class="cls-3" cx="6938.62" cy="3452.91" r="37.83" transform="translate(-409.3 6245.77) rotate(-45)"/><circle class="cls-3" cx="6293.74" cy="4453.22" r="37.73" transform="translate(-1220.07 6509.02) rotate(-48.23)"/><circle class="cls-3" cx="4934.39" cy="6283.36" r="44.85" transform="translate(-2076.32 10442.74) rotate(-80.51)"/><circle class="cls-3" cx="552.05" cy="1663.7" r="44.85" transform="translate(-739 806.11) rotate(-29.08)"/><circle class="cls-3" cx="4988.88" cy="2245.71" r="37.83"/><circle class="cls-3" cx="722.62" cy="148.45" r="44.85" transform="translate(106.68 882.54) rotate(-45)"/><circle class="cls-3" cx="271.07" cy="5529.5" r="42.49" transform="translate(-4164.69 2545.05) rotate(-50.44)"/><circle class="cls-3" cx="6432.01" cy="1356.99" r="47.99"/><circle class="cls-3" cx="6264.25" cy="5742.72" r="23.07" transform="translate(-2007.02 8021.63) rotate(-55.78)"/><circle class="cls-3" cx="1856.65" cy="822.51" r="23.07" transform="translate(1004.58 2993.87) rotate(-89.08)"/><path class="cls-3" d="M1626.15,2636.82a37.37,37.37,0,1,1-37.9-36.84A37.39,37.39,0,0,1,1626.15,2636.82Z" transform="translate(0 328.09)"/><circle class="cls-3" cx="42.49" cy="3460.77" r="42.49" transform="translate(-3335.47 3035.09) rotate(-76.72)"/><path class="cls-4" d="M4964.53,4274.14c-18.44,186.69-126.05,387.21-270.65,561.23-186.37,224.32-434.15,404.65-631.5,454.54-350.49,88.58-564.76-299-564.76-299l751.54-857.74c10.35-19.5,38.73-44.25,72.79-69.29,49.53-36.39,111.15-73.44,147.21-96C4530.07,3929.77,5006.69,3846.87,4964.53,4274.14Z" transform="translate(0 328.09)"/><g class="cls-5"><path class="cls-6" d="M4956.46,4133.64c6.53,36.3,8.31,78,4.11,125.83-39,445.29-545.37,962.76-895.65,1052.54s-567.78-316.11-567.78-316.11l53.54-63.78c90.19,113.66,265,275,499.09,215.06,160.14-41,352.9-171.47,518.72-343.56,122.32-126.95,112.69-332.56-24.51-443.26-100.54-81.13-213.15-99.59-213.15-99.59l-14.08-218.6c49.53-36.38,111.15-73.43,147.21-96,51.61-32.29,401.82-96.77,481.78,144.41.09.3.19.6.28.9a326,326,0,0,1,9.57,37.48C4955.9,4130.51,4956.18,4132.1,4956.46,4133.64Z" transform="translate(0 328.09)"/></g><path class="cls-6" d="M3959.41,5346.93c-118.79,0-234.56-47.44-339.91-140.3-101.93-89.83-158-190.21-160.35-194.43a44,44,0,0,1,77-42.61c8.15,14.64,202.54,356.77,515.49,277.66,346-87.47,829.66-577.17,869.16-977.43,11.71-118.68-19.43-202-92.56-247.65-120-74.9-309.53-33.19-335.72-17l-19.84,12.33c-45.76,28.34-167.3,103.64-184.63,136.29a44,44,0,1,1-77.7-41.25c26.3-49.55,117.18-108.6,216-169.83l19.53-12.13c51.38-32.12,278.41-76.37,428.2,16.51,71.77,44.51,153.34,138.13,134.26,331.37-20.2,204.66-146.69,445.42-347,660.53-186.8,200.56-406.65,347.68-588.11,393.55A463.12,463.12,0,0,1,3959.41,5346.93Z" transform="translate(0 328.09)"/><path class="cls-4" d="M5542.16,5455.59C5262.33,5555.81,5131.8,5439.11,5032,5289c-15.26-23-29.78-46.64-44-70.49-107.38-179.91-83.2-354.52-118.44-627.79-34.94-271.15-345.43-385.85-350.27-387.61l-.05,0S4375.6,4589,4045.68,4829.83s-669.48,253-669.48,253,69.16,182.89,78.56,338.54,22.2,271.51-167.08,497.94-613.54,303.95-753.32,14.19a424.06,424.06,0,0,1-25.6-66c-74.1-252.65,153-416.5,153-416.5-473.39-587.92-273.48-954.32-273.48-954.32-112.85-25.76-174.38-66-206.82-97.09-25.43-24.48-32.92-43.33-33.17-45.13,0,0-250.08,149.39-337.23,256.77s-213.58,154.92-382.46,87.14c-260.65-118.4-428.35-299.29-521.48-487a1.57,1.57,0,0,0-.16-.34C776,3947,792.68,3669.8,905.66,3534.68c246.74-310.21,654.12-209.87,741.71,66q337.7-409,1013-25.8L2986.78,3446l133.15-52.56A1849,1849,0,0,1,2948.6,3180c-203.31-294.45-349.91-676.92-435.2-1154.68q-6.74-37.53-12.93-75.91s-56.18-44.2-116.76-102.69c-34.14-33-69.7-70.4-97.44-107-6.82-9-13.16-17.93-18.88-26.76l38.76-257,200.52-28.23s-264.76-89.93-210.62-246.18c.36-1.09.77-2.19,1.21-3.29,20.81-55.44,71.81-75.53,132.62-75.14,105.1.59,239.57,62.38,298.34,107.94,0,0,2.54.44,6.53.72,16.09,1,56-.85,47.7-46.4-3.64-19.91-44.27-55.87-95.51-94.26-95.06-71.14-226.69-150.52-226.69-150.52s1.13-152.34,134.4-109.28c84.61,27.33,206.73,164.92,316.52,352q13.73,23.37,27.14,47.69c15.73,28.56,31.16,58.08,46,88.4a2097.53,2097.53,0,0,1,94.75,224.77s176,494.19,297.64,607.35c2.8,2.6,5.54,5,8.28,7.19,74.09,59.3,645.68,558.43,1081.38,939.72C4746.2,3323.34,4970,3519.59,4970,3519.59c66.87,35.83,129.85,80.07,188.23,131.12q15.71,13.68,30.92,28c317.62,298.81,489.09,802.48,391.25,1237.59C5674.79,5012.45,5864.78,5340,5542.16,5455.59Z" transform="translate(0 328.09)"/><g class="cls-5"><path class="cls-6" d="M3764.35,3095.59c-487.92-35.13-644.42,297.86-644.42,297.86l-122.58,106.9L2986.78,3446l133.15-52.56c-61-65.19-189.47-236.33-242.69-313.48,300.88,256.53,484.14,50.16,449-450.74l296.32-109.38C3648,2524,3653,2545.3,3784,2614.37S4252.22,3130.73,3764.35,3095.59Z" transform="translate(0 328.09)"/></g><path class="cls-6" d="M2141.29,4397.79a44,44,0,0,1-36.94-67.82C2219,4152,2283.86,3843,2194.08,3634c-45.56-106.09-124.76-170.52-235.4-191.49a44,44,0,0,1,16.39-86.43c139.16,26.38,242.84,110.47,299.85,243.21,105.15,244.84,28.7,583.75-96.61,778.33A44,44,0,0,1,2141.29,4397.79Z" transform="translate(0 328.09)"/><path class="cls-6" d="M3369.33,5126.17A44,44,0,0,1,3329.1,5100c-169.63-382.2-501.76-587.24-712.25-558.18-125.72,17.43-204.4,111.94-227.55,273.35a44,44,0,0,1-87.08-12.49c39-271.72,206.29-334.65,302.57-348,282.19-39.24,635.65,228.69,804.72,609.61a44,44,0,0,1-40.18,61.83Z" transform="translate(0 328.09)"/><path class="cls-6" d="M4842.62,4552.33a44,44,0,0,1-40-62.17c2.08-4.56,52.16-112.91,163.59-213.49,103.55-93.47,281.55-197.63,541.36-163.05a44,44,0,1,1-11.6,87.2c-431.65-57.41-606.1,310.2-613.32,325.88A44.07,44.07,0,0,1,4842.62,4552.33Z" transform="translate(0 328.09)"/><path class="cls-6" d="M2727.82,2743c-23,0-37-.65-39.64-.78a44,44,0,0,1,4.47-87.86c4.22.22,321,14.07,608.19-116.39a44,44,0,0,1,36.38,80.09C3088.1,2731.28,2825.89,2743,2727.82,2743Z" transform="translate(0 328.09)"/><g class="cls-5"><path class="cls-6" d="M3376.72,2131.56c3.63,318.76,1.65,609.54,1.65,609.54S3221.28,2228,3097.14,1992.32s-366.09-92.17-475.47-58S2546,2150.65,2546,2150.65l-32.55-125.34q-6.74-37.53-12.93-75.91s-56.18-44.2-116.76-102.69c163.63,68.56,138.84-84,138.84-84,114.88,194.88,578.47-21.66,410-550.17l5.74-1.53c15.73,28.56,31.16,58.08,46,88.4a2097.53,2097.53,0,0,1,94.75,224.77S3255.12,2018.4,3376.72,2131.56Z" transform="translate(0 328.09)"/></g><g class="cls-5"><path class="cls-6" d="M2476,1432l-14.16,200.89c-128.17-71.59-168.51,75.08-175.56,106.73-6.82-9-13.16-17.93-18.88-26.76l38.76-257Z" transform="translate(0 328.09)"/></g><g class="cls-5"><path class="cls-6" d="M5535.24,5455c-279.83,100.23-410.36-16.48-510.14-166.56l2.81-8.15c438.34,377.05,671.3-185.47,384.2-400.06,60.55-391.21-41.51-770.3-255.53-1016.13-78.49-90.15-195.6-136.25-314.78-127.23C4107.72,3792.36,3769.21,3330,3769.21,3330l690.25-252.13C4739.27,3322.72,4963.05,3519,4963.05,3519c66.87,35.82,129.85,80.07,188.23,131.12.14.14.27.24.41.38,3.73,3.23,7.43,6.51,11.05,9.79q3.29,2.89,6.45,5.81c4.36,4,8.72,8,13,12,317.62,298.82,489.09,802.48,391.25,1237.6C5667.87,5011.83,5857.86,5339.4,5535.24,5455Z" transform="translate(0 328.09)"/></g><g class="cls-5"><path class="cls-6" d="M3325.26,4043.23l562.21,49.8-51.69,62.57s46.95,177.74-193.86,114.14-295.69,152.07-295.69,152.07c27.55,133.9-84.68,126.21-84.68,126.21-109.51-441.16-685.27-280.88-685.27-280.88s218.39-179.52,441.25-91.41Z" transform="translate(0 328.09)"/></g><g class="cls-5"><path class="cls-6" d="M4512.33,4202.47s-143.65,385.86-473.57,626.74-669.48,252.95-669.48,252.95,69.15,182.89,78.56,338.55,22.2,271.51-167.08,497.94-613.54,304-753.33,14.18a426,426,0,0,1-25.6-66l2.24-.55s17.33,173.56,345.46,105.94,594-631.46,280.76-1242.05c0,0,377.76,259.53,778-173.53,0,0,257.83-237.16,353.56-461C4261.86,4095.62,4426.31,4132,4512.33,4202.47Z" transform="translate(0 328.09)"/></g><g class="cls-5"><path class="cls-6" d="M2414.71,3991.1c-57.22,186.33-53.21,365.21-41.64,469.81-6.2,7.66-12.33,15.48-18.37,23.36-62.45-14.9-122.61-42.84-180.19-85.37-25.43-24.47-32.92-43.32-33.17-45.12,0,0-250.09,149.39-337.24,256.77s-213.57,154.92-382.45,87.14c-260.65-118.4-428.35-299.29-521.48-487,9.17,15.46,202.42,336.09,492.8,334.06,297.56-2.09,89.41-292,75.23-496s-55.76-444.54-131.63-501.72c0,0,171.13,73.26,233.31,385.73,0,0,3.87,122.55,99.95,216s365.8,94,608.4-229.77C2278.23,3919,2357.79,3919.78,2414.71,3991.1Z" transform="translate(0 328.09)"/></g><path class="cls-4" d="M4909.64,5032s-116.16,135.07-50.23,261.33,241.67,92,241.67,92Z" transform="translate(0 328.09)"/><path class="cls-6" d="M2846.85,6164.78a488.27,488.27,0,0,1-60.24-3.66c-135.74-16.83-241.85-91.12-298.79-209.16-109.72-227.45,6.44-417,105.75-508.22-361.17-467-310.66-796.51-271.51-917.89-103.85-31.2-163.07-75.62-194.32-112-71,44.8-227.33,147.77-289.47,224.35-108.15,133.3-261.94,168.92-433,100.25-.6-.24-1.21-.5-1.8-.77-322.28-146.38-547.64-408.19-618.29-718.32-46.12-202.45-15.67-399,79.47-513.13,126-158.17,308.58-232.81,488.49-199.65,131.88,24.31,241.81,103.56,300.85,213.14,235.22-235,572.08-233.07,1002.74,5.87l381.18-150.46c-289.39-332.76-486.07-804.22-585-1402.72-41.55-34-167-140.37-229.25-236.24a44,44,0,0,1-6.61-30.52l38.74-256.92a44,44,0,0,1,37.36-37l61.85-8.71c-39.5-27.06-78-62.51-99.49-106.51-20.27-41.45-23-86.41-7.9-130,17.1-49.36,53.31-83.53,104.72-98.81,109.14-32.46,265,27.29,353.92,79.87-53.08-46.63-170.6-126.64-275.57-189.92a44,44,0,0,1-21.28-38c.07-9.6,2.43-95,62-138,23.91-17.27,65.87-33.52,130-12.78,153.64,49.63,388.28,388.54,512.38,740.08,50.05,140.46,200.13,521.4,291.91,594.87,119.2,95.42,1483.43,1291.72,1582.74,1378.82,462,250.69,742.21,882.23,632.95,1420,73.68,84.44,163.9,249.37,131.34,391.5-14.78,64.45-61.89,151.86-202.5,202.22-345.15,123.68-489-58.62-606.77-255.92-82.2-137.71-92.05-269.24-104.51-435.75-4.87-65.15-9.92-132.52-19.77-208.95-24.41-189.4-203.21-296.24-283.21-335-48.24,109.65-196.08,403.18-471.14,604-259.18,189.21-521.64,241.71-635.52,256.09,21.91,67.72,56,187.77,62.6,297.22l.76,12.43c9.34,151.65,17.4,282.63-178,516.38C3203,6080.22,3017.76,6164.77,2846.85,6164.78ZM2183,4339.81c3.74,7.33,42.59,75.55,208.06,113.28a44,44,0,0,1,28.83,63.95c-.32.61-45.11,87.26-35,240.28,9.4,142.9,69.81,374.34,304.16,665.4a44,44,0,0,1-8.52,63.26c-9.57,7-235.15,175.53-113.48,427.75,55.77,115.62,156.07,150.87,230.39,160.09C2953,6093.14,3142,6016,3247,5890.42c173-206.88,166.56-310.78,157.71-454.55l-.76-12.52c-8.91-146.93-75.14-323.86-75.8-325.63a44,44,0,0,1,39.57-59.49c3.22-.13,330.85-15.17,645.08-244.57,314.83-229.82,456.91-602.8,458.3-606.55a44,44,0,0,1,56.22-26c13.89,5,340.75,126.91,378.95,423.35,10.15,78.75,15.52,150.42,20.25,213.63,12,161,20.75,277.33,92.32,397.23,84.52,141.59,167,253.12,327,253.14,49.87,0,107.23-10.82,174.56-34.94,84-30.09,131.87-75.57,146.42-139.07,25.46-111.14-59.39-261.4-124.75-327.95a44,44,0,0,1-11.53-40.47c114.28-508.38-149.63-1113.24-588.29-1348.35A43.57,43.57,0,0,1,4934,3552c-14.63-12.83-1463.91-1283.87-1583.45-1379.56-127.76-102.28-300.57-580-319.85-634.14-122.79-347.81-342.27-648.88-456.51-685.79-23.25-7.5-40.5-7.4-51.3.31-12.08,8.63-19.13,27.58-22.68,44.29,29.4,18.2,81.64,51.11,135.08,87.59,160.26,109.37,178.73,146.18,183.46,172.11,7.31,40-9.09,63.62-19.52,74.15-30.17,30.48-76.45,24.33-85.41,22.77a44,44,0,0,1-19.49-8.59c-69.55-53.92-231.47-118.6-317-93.15-24.09,7.16-38.91,20.91-46.66,43.28-7.59,21.91-6.39,41.81,3.79,62.6,32,65.51,140.39,114.28,179.44,127.55a44,44,0,0,1-8,85.2l-168.06,23.67-31.28,207.45c70,98.36,212.69,211.25,214.2,212.43a44,44,0,0,1,16.21,27.54c100,618.18,304.59,1096.29,608.18,1421a44,44,0,0,1-16,70.94l-459.57,181.42a44.06,44.06,0,0,1-37.85-2.65c-432.92-245.44-746.08-240.35-957.36,15.56a44,44,0,0,1-75.85-14.69c-35.79-112.72-135.93-197.11-261.34-220.21-147.52-27.18-298.6,35.72-404,168.3l-.69.84c-78.15,93.44-101.72,261.12-61.52,437.59,64.42,282.8,271.42,522.35,568,657.34,135.68,54.15,247.06,29.11,331-74.39,91-112.15,338.33-260.54,348.81-266.8a44,44,0,0,1,64.26,23.78Zm1.83,7.69a1,1,0,0,0,0,.17A1,1,0,0,1,2184.86,4347.5Zm0-.16a.78.78,0,0,1,0,.14A.68.68,0,0,0,2184.83,4347.34Zm0-.12a.09.09,0,0,1,0,.05A.09.09,0,0,0,2184.81,4347.22Z" transform="translate(0 328.09)"/><path class="cls-6" d="M2381.27,4540a44,44,0,0,1-38-66.1c158.93-273.29,391.89-397.51,655.95-349.62a44,44,0,1,1-15.67,86.55c-303.48-54.93-483.77,168.94-564.24,307.29A44,44,0,0,1,2381.27,4540Z" transform="translate(0 328.09)"/><path class="cls-4" d="M3809.71,3969.09l-571.1,315.84c-50.13-51.53-149.71-88.06-206-105.64-24.83-7.73-41.22-11.78-41.22-11.78-128.09-93.32-292.38-241.25-365.09-308a116.41,116.41,0,0,1-37.57-86.34c.38-75.2,6.38-136.57,64.68-198.9,79.77-85.36,468.18-221.69,560.32-175.2,68.88,34.74,260.66,141.14,396.49,239,46,33.1,85.44,65.26,111.66,93.34C3825.5,3842.5,3809.71,3969.09,3809.71,3969.09Z" transform="translate(0 328.09)"/><g class="cls-5"><path class="cls-6" d="M3809.71,3969.09l-571.1,315.84c-50.13-51.53-149.71-88.06-206-105.64,76.49-48.53,77.13-171.71,77.13-171.71L2908.68,3845.9s175.44,80.88,279.24,108.47,231-52.74,375-136,47.27-180.3,47.27-180.3l.08,0c46,33.1,85.44,65.26,111.66,93.34C3825.5,3842.5,3809.71,3969.09,3809.71,3969.09Z" transform="translate(0 328.09)"/></g><path class="cls-6" d="M3230.5,4339.65l-23.41-24.06c-51.93-53.33-180.92-94.14-226.24-105.36l-8.36-2.08-7-5.08c-131.64-95.91-301.79-249.53-368.84-311.12a161,161,0,0,1-51.9-119.22c.42-77.74,6.58-153.72,76.54-228.54,88.47-94.65,496.68-242.75,612.26-184.43,75.6,38.12,405.87,218.76,520.49,341.63,116.32,124.7,100.08,267.12,99.33,273.12l-2.78,22.22ZM3010.56,4127c36,9.51,157.19,44.63,233.87,104.4l522.18-288.78c-1.07-35.84-11.86-111.54-76.89-181.25-97-104-401.7-275.65-495.77-323.09-20.21-10.21-103.77-7.77-251.27,40.67-132.62,43.54-229.74,96-257.13,125.28-48.47,51.87-52.47,102.73-52.82,168.93a72.87,72.87,0,0,0,23.44,54h0C2721,3886.68,2883.49,4033.46,3010.56,4127Z" transform="translate(0 328.09)"/><path class="cls-6" d="M3212.35,4053.85a106.23,106.23,0,0,1-14.87-1c-127.53-18.41-405.54-255-491.09-347.66-39.75-43.07-58.92-84.25-57-122.42,1.87-36.82,23.06-56.57,25.47-58.69a25.72,25.72,0,0,1,34.52,38.14c-12.55,12.61-19.27,49.48,34.81,108.06,94.17,102,359.43,317,460.63,331.64,42.41,6.15,158.15-36.64,281.36-104,136-74.38,205.49-136.34,211.86-156.87a25.72,25.72,0,0,1,46-22.76c6.8,11.51,11.08,31-7.22,58.29C3674.79,3869.23,3340.27,4053.85,3212.35,4053.85Z" transform="translate(0 328.09)"/><path class="cls-6" d="M2869.11,3842a21.76,21.76,0,0,1-12.27-39.75l138.71-94.48,46.24-155.2a21.77,21.77,0,0,1,13.65-14.32l270.53-95a21.76,21.76,0,1,1,14.42,41.07l-260,91.29-45.28,152a21.82,21.82,0,0,1-8.6,11.77l-145.12,98.83A21.61,21.61,0,0,1,2869.11,3842Z" transform="translate(0 328.09)"/><path class="cls-7" d="M3421.88,3690.76a41.55,41.55,0,0,1-3.1,22c-13.45,32.75-65.13,62.49-130,71.61s-122.74-5.18-144.71-32.93a41.62,41.62,0,0,1-9-20.31,39.22,39.22,0,0,1,.24-12.42l.42-2.14c8.18-35.6,62.67-69.25,132.42-79.07C3347.35,3626.36,3416.17,3650.2,3421.88,3690.76Z" transform="translate(0 328.09)"/><path class="cls-6" d="M3249.74,3809c-54.56,0-100.46-15.91-122.69-44a63.24,63.24,0,0,1-13.54-30.78,61.42,61.42,0,0,1,.37-19.27l.49-2.51c10.57-46.05,72.49-85.43,150.75-96.45,94-13.26,170.69,17.62,178.31,71.77a63.25,63.25,0,0,1-4.54,33.4c-17,41.31-74.69,74.63-147,84.82A304.45,304.45,0,0,1,3249.74,3809Zm57.7-152.51a260,260,0,0,0-36.25,2.62c-64.63,9.1-108.84,38.87-114.24,62.39l-.27,1.45a16.79,16.79,0,0,0-.06,5.22,19.92,19.92,0,0,0,4.52,9.75c15.07,19.05,62.69,33.67,124.66,25s103.66-35.95,112.85-58.33a20,20,0,0,0,1.67-10.71h0C3397.79,3675.81,3362.51,3656.44,3307.44,3656.44Z" transform="translate(0 328.09)"/><path class="cls-6" d="M3255.6,3897.08c-85.69,0-152.16-33.79-159.45-85.57a21.87,21.87,0,0,1,.19-7.22l17.62-89.76a21.77,21.77,0,0,1,42.79,8,17.25,17.25,0,0,0-.13,5.59,19.92,19.92,0,0,0,4.52,9.75c15.07,19.05,62.69,33.67,124.66,25s103.66-35.95,112.85-58.33a20,20,0,0,0,1.67-10.71,21.77,21.77,0,0,1,40.12-14.4l31.4,51.34a69.94,69.94,0,0,1,9.64,26.53h0c8.62,61.23-69.25,121.13-177.27,136.34A349,349,0,0,1,3255.6,3897.08Zm-115.72-88.61c8.26,29.82,75.46,53.68,158.26,42,85.58-12.07,144.62-56,140.23-87.17a26.29,26.29,0,0,0-3.79-10.09l-7.45-12.2c-24.85,31.85-75,56.4-135.26,64.9-59.54,8.36-113.88-1-146.75-24.16Z" transform="translate(0 328.09)"/><path class="cls-4" d="M4258.18,4737.37c-37.39,130.39-220.44,93.14-220.44,93.14-46.46-125.9-104.45-240.35-175.83-341.64q-11.09-15.82-22.68-31.13l-.3-.44c-61.21-81.3-131.64-153.51-212.36-215.6a1105.44,1105.44,0,0,0-141.33-92.4c-61.46-184.5,148.57-217.86,260.36-144,11,5.64,21.66,11.37,32.12,17.25,170.59,95.84,274,222.87,352.74,361.41,45.19,79.44,82.2,162.63,119.18,245.91C4264.63,4663.72,4268.36,4701.81,4258.18,4737.37Z" transform="translate(0 328.09)"/><g class="cls-5"><path class="cls-6" d="M4258.18,4737.37c-37.39,130.39-220.44,93.14-220.44,93.14-46.46-125.9-104.45-240.35-175.83-341.64,39.58,49.74,124.37,137.63,210.21,105.57,103.53-38.72,68.25-177.78,58.34-210.44,45.19,79.44,82.2,162.63,119.18,245.91C4264.63,4663.72,4268.36,4701.81,4258.18,4737.37Z" transform="translate(0 328.09)"/></g><g class="cls-5"><path class="cls-6" d="M3777.72,4022.59c-211.34,23.17-147.39,207.19-147.39,207.19l-3.76,11.92a1105.44,1105.44,0,0,0-141.33-92.4c-61.46-184.5,148.57-217.86,260.36-144C3756.59,4011,3767.26,4016.71,3777.72,4022.59Z" transform="translate(0 328.09)"/></g><path class="cls-6" d="M4093.87,4878.41a325.52,325.52,0,0,1-63.89-6.13l-24-4.87-8.47-23C3883.86,4536.5,3709.68,4321.3,3465,4186.49l-15.06-8.31-5.44-16.31c-27.63-82.92-11-155.4,45.72-198.86,70.6-54.13,192.44-52.72,278.51,2.91,305.84,157.92,415.78,405.44,522.09,644.82,19.6,44.14,23.38,92.95,10.62,137.42C4271.93,4851.14,4173.07,4878.41,4093.87,4878.41ZM4070.62,4789c41.69,3.55,127,2.17,146.28-65.13,7.07-24.65,4.78-52.17-6.46-77.46-105-236.38-204.13-459.65-483.94-603.34l-4.17-2.44c-54-35.7-137.44-39.37-178.57-7.86-23.17,17.77-30,46.52-20.35,85.57C3772.37,4260.48,3951.68,4480.21,4070.62,4789Z" transform="translate(0 328.09)"/><path class="cls-6" d="M3266.59,4251c50,34.88,84.5,87.25,106.52,143.31,7,18.86,12.48,38.53,14.72,58.86,3.32,29.63-37.24,42.16-51.4,16.37-33.7-57.39-81.1-104.52-126.9-151.85-34.8-38.77,13.9-94.94,57.06-66.69Z" transform="translate(0 328.09)"/><path class="cls-6" d="M1694.57,4744.65a44,44,0,0,1-29.11-77c106-93.48,36.12-226.71-74.17-404.7-40.11-64.73-78-125.89-95.45-180-14.37-44.53-24.25-93.12-34.71-144.57-30.63-150.52-62.3-306.17-208.45-401.78-180.16-117.85-316.24,21.62-322,27.63a44,44,0,0,1-64.15-60.19c65.21-69.79,239.88-168.22,434.26-41.06,176.88,115.72,215.47,305.42,246.49,457.87,10,49,19.37,95.23,32.23,135.1,14.16,43.92,49.3,100.64,86.51,160.69,96,154.94,227.5,367.15,57.58,517A43.83,43.83,0,0,1,1694.57,4744.65Z" transform="translate(0 328.09)"/><path class="cls-6" d="M813.19,3792.29h-.52a44,44,0,0,1-43.19-44.77c.44-24.11,20-43.75,44.26-43.19,31.51-1,380.85-51,594.09-82.37a44,44,0,0,1,12.8,87C1287.36,3728.58,851.31,3792.29,813.19,3792.29Z" transform="translate(0 328.09)"/><path class="cls-6" d="M827.3,4050.49a44,44,0,0,1-6.57-87.47l657.66-100.11a44,44,0,0,1,13.24,87L834,4050A43.2,43.2,0,0,1,827.3,4050.49Z" transform="translate(0 328.09)"/><path class="cls-6" d="M956.37,4353a44,44,0,0,1-10.17-86.78l610.25-145.65a44,44,0,1,1,20.43,85.57L966.62,4351.75A44.68,44.68,0,0,1,956.37,4353Z" transform="translate(0 328.09)"/><path class="cls-6" d="M1202.6,4598.32a44,44,0,0,1-16.32-84.84l482.93-192.84a44,44,0,1,1,32.63,81.7L1218.9,4595.18A44,44,0,0,1,1202.6,4598.32Z" transform="translate(0 328.09)"/><path class="cls-6" d="M1681.49,3584.24c20.32,81.36,24.23,164.85,18,247.94-1.8,22.79-35.16,23.72-38.29,1.2-10-74.58-29.08-149.89-61.79-217.51-28.4-60,62.74-95.24,82.08-31.63Z" transform="translate(0 328.09)"/><path class="cls-6" d="M2348,4500.71c-40.25-123.26-17.93-259.22,29.65-377,10.65-25.23,48.23-12.4,41.24,14.07-21.54,84.53-35.76,173.32-28.77,260.42,2.09,28.35,6.38,57.09,14.13,84.16,9.2,36.21-42.28,52.93-56.25,18.38Z" transform="translate(0 328.09)"/><path class="cls-6" d="M5048,5433.56c-67.86,0-174.22-17.85-227.52-119.91-78.83-151,50.33-303.93,55.86-310.36a44,44,0,0,1,66.77,57.27c-1.48,1.75-95.61,114.8-44.66,212.36,49.72,95.21,192.94,69.42,194.39,69.17a44,44,0,0,1,16.71,86.36C5106.65,5429,5082.2,5433.56,5048,5433.56Z" transform="translate(0 328.09)"/><path class="cls-6" d="M2518.52,1453.53c-24.31,53.63-25.05,115.3-20.66,173.9l3.53,31.87c1.49,18.78,15,50.85-12.75,55.69-25,2-24.88-29.37-32.28-46.19-15.76-57-24-116.45-14.19-175.86,5.1-26.24,12.39-51.74,28.3-74.28,23.77-31.06,70.24,2.57,48.05,34.87Z" transform="translate(0 328.09)"/><path class="cls-6" d="M2739.31,1186.82c67.87,55.62,104.73,140.83,118.68,225.69,1,6.6,2.62,23.33,3.51,30.08-.47,22.43,11.88,61.84-21,64.84-31,.15-24.63-37.49-30-58.36-6.21-35.25-16.11-70.14-30.21-102.86-19.27-42.77-44.75-82.88-79.42-114.47-26.48-26.1,8.56-66.91,38.4-44.92Z" transform="translate(0 328.09)"/><path class="cls-8" d="M2659.6,573.81c3.89,7.81,7.7,15.66,11.34,23.53,195.12,422,20.45,925.4-398.37,1134.36s-926.06,45.78-1145.88-363.89c-4.1-7.65-8.08-15.41-12-23.21a860.56,860.56,0,0,1-87-302.71c-32.75-341.09,140.91-682.65,462.2-849.08,3.91-2.06,7.9-4.06,11.89-6.05s8-4,12.08-5.91C1840.1,24.27,2217.33,91,2470.09,322.23A860.55,860.55,0,0,1,2659.6,573.81Z" transform="translate(0 328.09)"/><g class="cls-9"><path class="cls-10" d="M2341.86,1438.73c-4-42.59-27.79-82.54-63.18-106.1-45.43-30.25-55.75-96.49-62-144-5.08-38.33-29.21-68.14-66.59-41.71-85.91,60.74-210.48-31.66-234.92-120.27-21.34-94.8,1.17-177.73,49.31-258.34,33.43-55.95,103.72-72.79,160.16-45.17,66.51,32.56,170.22-68.17,181-134,1.23-7.5,2-17.64-.61-23.62-26.92-60.49-119.13-64.38-149.95-8.26-20,36.34-61.22,49.55-98.07,29.91-67.73-36.1-89-6-112.1,60.53-7.43,21.43-7.52,60.19-34.08,43.72-26.11-16.19-48.49-48.49-34.93-79.24,33.09-75,63.87-154.59,83.64-235.39,1.29-5.27,6.56-12.42,10.21-12.8,84.09-8.82,75.27-117.24,91.76-177.68,5.81-21.31,1.36-31.05-12.38-39.48-14-8.6-20.56,1.16-26,16.14-9.11,25.13-18.05,50.37-27.3,75.39-4.75,12.85-6.47,32.38-20.77,30.26-16.74-2.47-25.35-22.86-24.37-41.39,2.81-53.07,16.88-112.32,49.18-155.24,24.46-32.5,71.69-56,109.19-31.05,46.57,31,82.87,27.85,133.85,1.67,21.42-11,44.45-22.91,67.1-29.74,38.28-11.54,65.61-42.35,75.29-81.25,10.27-38.8,41.49-66.77,80.44-74.17,24.55-4.66,40.4-18.24,47.56-47.83,12.75-52.67,54.32-92.43,104.46-109.36,74.54-25.16,136.08-21,190.1,34.66,14.75,15.19,30.12,9.28,44.52,6.18,37.69-8.11,77.94-14.3,113.71-23.22,27.12-6.76,66.05,6.08,83.57,27.8,11.81,14.66,25.54,16.29,39.09,14.35,18.61-2.66,38.66-3,56.26-5,42.48-4.92,60.56,3.81,82.92,42.1,8.86,37.54-16.11,87.69-51.26,96.81a152.18,152.18,0,0,1-34.29,4.57c-32.89.54-38.34,21.22-27.33,62.77,23.64,89.16-5.93,220.46-101,253.53-23.07,8-35.84,17.07-25.07,53.71,5.63,19.17,8.83,41.83-.62,61.65C2966.67,375.59,2955,426.86,2969,475.7c11,38.41-25.87,67.39-60.44,47.11a1112.19,1112.19,0,0,1-109.12-73.7c-27-20.51-42.37-14.05-53.81,22-9.87,31.07-26.18,62.61-33.72,92.64-9.61,38.25-41.7,64.69-76.83,35.36-40.12-25.54-61.65-35.28-103-24.83-14.65,3.69-31.1-2-45.27-12.76-14.41-10.94-31.11-23.07-38.68,6.57C2441,596,2464,594.25,2474.42,602.74c18.82,15.4,39.37,27.59,59.08,40.14,34.62,22,38.5,57,16,89.74-22,31.94-63.33,58.27-101.61,31.84-25.78-16.38-51.12-33.55-76.8-50-12.18-7.78-23.64-21.57-34.76,6.49-11.8,29.74,5.29,32,16.57,39.58,44.9,30.35,90,60.29,135.93,89a88.54,88.54,0,0,1,31.78,115.84c-43.24,84.48-35.19,175.85-4.38,270.75,12.6,38.83,22,77.2,30.53,117.33,17.31,79.6-20.09,198.4-108,219.85-35,7.83-63.91-16.56-74-48.71C2356,1496.91,2349.06,1467.32,2341.86,1438.73Z" transform="translate(0 328.09)"/><path class="cls-10" d="M685.71,893.43c-36.69-75.5-31.08-134.61,53.09-167.1q186.54-81.06,368-172.66c20.39-10.28,41.31-22.65,59.46-.18,15.34,19,14.28,42.92,6.48,68.23-13.84,44.91,19.51,56.15,50.89,71.38,26.43,12.83,55.51-3.65,77.26-25.47,19.13-19.18-.41-43-4.3-64.26-2.72-14.88-11.27-30.75.08-43.87,11.72-13.54,23.74-.72,33.78,6.22,20.12,13.92,39.29,16.1,61.62,3.4,19.55-11.13,40.49-10.49,55.49,12,14.83,22.3,12.52,49.67,3.56,74.51-36.49,101.13-77.54,203.71-113.21,302.11-15.32,42.25-62.32,56.7-99.79,72.32s-38.54,57.49-22.27,89c6.71,13,14.17,22.46,26.1,17.64,47.5-19.19,87.2,15.48,122.24,39.88,26.9,18.74,63.83,30.43,96.1,13.56,38.61-20.19,70.31-18,108.39,5,29.86,18,71.93,44.94,109.17,34.39,48.55-13.76,73.87,126.78,64.1,163-26.73,99.18-63.13,205.23-100.5,302.75-20.3,53-23.64,106.48-6.26,158.48,8.7,26,15.6,56.59,22,85.41,4,17.85,16.84,39.58,7.27,53.49-11.92,17.33-29.74-.83-43.57-9-46.74-28.06-76-80.68-89.72-131.62-10.18-37.81-22.07-76.64-29.88-114.67-15.54-75.69-42.4-155.92-112.25-199.82-63.2-43.5-86.28-176.76-67.15-243.66,5-17.49,27.62-36.21,10.24-55.81-18.12-20.43-42.34-47-66.86-37.31-50.25,19.94-105.45-11.46-144.26-41.39-37.83-29.17-76.06-58.53-118.2-81.78C940.91,1044,923.6,971.15,902.23,911.46c-18.13-50.67-92.12-107.27-146.32-100.33C716.23,816.21,703.38,861.48,685.71,893.43Z" transform="translate(0 328.09)"/><path class="cls-10" d="M3467.45,838.1a22,22,0,0,1,1.4,4.57c2,23.89,29.08,48.34,7.51,69.49-20.56,20.16-61.84,41-91.22,25.11-44.74-14.32-62.43-11.47-101.07,9.93-31.11,17.23-71.25,16.66-95.27-13.78-27.77-33-25.26-78.43-11.22-116.4,21.89-59.18,79.63-120.9,145.86-117.2C3389.13,703.49,3447.84,778.85,3467.45,838.1Z" transform="translate(0 328.09)"/><path class="cls-10" d="M1526.67,121.82c15.58-8.54,32.16-17.67,46.83-25.43,31.38-16.59,85.67-63.25,114.27-13.17,40.92,71.67,49.7,138.5,23.53,212-22.27,62.56-49.37,129.79-70.66,196-17.84,55.49-40,62.46-76.1,31.1-20.81-18.06-44.8-34.6-53-63.56-13.52-47.51-48.29-83.12-90.61-106.11-23.44-12.73-48.57-31.68-40.52-75.33,7-37.7,15.18-85.09,53-104.28,30.69-15.59,62.26-33.8,93.43-50.89Z" transform="translate(0 328.09)"/><path class="cls-10" d="M1275.68,475.33c-26.74,16.33-49.74,27.91-74.52,17.56-10.46-4.36-19.22-12.89-21.29-25.67-2.84-17.56,11.14-20.92,20.35-26.42,15.49-9.25,31.56-16.9,47.28-25.74,28-15.72,59.82-24.14,69.1,17.93C1325.14,471.71,1285.59,459.9,1275.68,475.33Z" transform="translate(0 328.09)"/><path class="cls-10" d="M2963.34,624.81c38.24-3.31,94.53,25.4,113,54,11.83,18.25-5,28.87-14.54,30.53-28.72,5-96.08-30.63-113-56.81C2942.59,642.9,2947.89,631.31,2963.34,624.81Z" transform="translate(0 328.09)"/><path class="cls-10" d="M2556.65,1239.84c-6.26-32.75-8.92-75.41,22.08-96.17,23.19-15.53,26.44,18.58,31.05,37.49,7.93,32.48,11.16,75.25-21.15,96.18C2562.73,1294.12,2565.68,1256.75,2556.65,1239.84Z" transform="translate(0 328.09)"/><path class="cls-10" d="M3222.65,52.62c5.93,40.05-30.93,116.31-61.83,124.09-8.12,2-22.06-7.37-17.8-18.08,13.34-37.39,24.41-82.92,57.58-106.26C3206.55,48.19,3219.78,42,3222.65,52.62Z" transform="translate(0 328.09)"/><path class="cls-10" d="M3206.28,660.61c-11.57-.5-33.12,27.58-40.45-9.16-7.82-39.24,17.73-53.55,43.89-59.13,14-3,35.06-24,42.23,2.84C3263,629,3238.21,655,3206.28,660.61Z" transform="translate(0 328.09)"/><path class="cls-10" d="M3557.4,852.83c-1.93,12.49,23.8,29.57-1.56,36.23-26.47,7-40.16-17.28-46.21-42.71-3.47-14.63-21.87-37.92-1.1-44.35C3544.4,790.9,3545.82,830.12,3557.4,852.83Z" transform="translate(0 328.09)"/><path class="cls-10" d="M1889.16,344c7.16,27.51,19.84,68.55-10,87-18.74,11.61-21.41-18.3-24.38-34-5.27-27.84-20.64-69.84,6.62-90.47C1884.88,288.81,1878.28,336.42,1889.16,344Z" transform="translate(0 328.09)"/><path class="cls-10" d="M3097.83,511.85c7,28.24,14.38,56.74-13.93,66.08-22.6,7.46-20.5-21.62-26.22-36.85-9.95-26.46-4.47-52.05,14.76-61.59C3095.75,467.94,3090.64,501,3097.83,511.85Z" transform="translate(0 328.09)"/><path class="cls-10" d="M1839,414.64c4.27,18.21,2.11,32.63-13,39.59-10.31,4.74-18.19,1.46-21.91-12.67-4.64-17.63-1.22-33.19,11-42.81C1828.06,388.44,1834.51,400,1839,414.64Z" transform="translate(0 328.09)"/><path class="cls-11" d="M2425.57,1588.6c-36.44,0-64.1-28.12-74-59.84-7.23-23.09-13.3-47.49-19.16-71.07l-4.25-17.67c-3.65-38.68-25-74.53-57.09-95.9-48.31-32.16-60.47-96.2-68.08-153.71-2.54-19.2-10.38-34.31-20-38.5-6.61-2.88-15-.78-25,6.26-33.94,24-77,28.51-121.2,12.71-61.85-22.1-118.63-81.22-135-140.59l-.16-.64c-20.43-90.76-4.25-176.07,50.93-268.45,36.28-60.72,112.84-82.42,178.08-50.49,21.67,10.62,47.12,2,64.65-7,45.1-23.27,90.29-77.85,96.69-116.8,1.61-9.82.79-14.83.38-15.81-12.39-27.84-40.29-38.76-62.25-39.67-27.14-1.11-51.33,11.31-63,32.49-23.64,43.06-73.79,58.3-116.66,35.44-23.78-12.67-41.15-16.55-53.1-11.86-16.35,6.41-27.6,30.51-39.47,64.73-1.41,4.09-2.6,9.28-3.85,14.76-3.66,16-7.82,34.19-22.55,40.35-8.43,3.53-17.86,2.12-28-4.18-32.34-20-56.56-59.65-40.28-96.54,39.55-89.62,65.88-163.69,82.86-233.1,2.12-8.66,10.64-22,22.18-23.26,50.11-5.25,60.91-52.27,70.7-118.14,2.65-17.82,5.15-34.66,9.18-49.43,4.72-17.34.59-19.87-6.27-24.08-.51-.31-.93-.54-1.28-.71-.9,1.29-2.44,4-4.51,9.78q-4.68,12.88-9.3,25.8c-6,16.59-11.93,33.18-18,49.68-.88,2.38-1.63,5-2.4,7.7-3.28,11.32-10.09,34.89-33.34,31.43-25.19-3.72-37.42-31.51-36.13-55.78,2-37.68,11.38-108.94,51.93-162.81,29-38.55,83.69-63.64,127.87-34.24,39.6,26.36,69.86,26.58,119.9.88l1-.5C2258.64,19,2282.52,6.76,2306-.33c32.58-9.82,57.2-36.5,65.87-71.36,11.55-43.64,46.5-75.9,91.26-84.4,20.58-3.91,31.22-14.78,36.72-37.52,13.35-55.16,55.77-99.71,113.46-119.19,86-29,151-16.93,204.43,38.13,7.36,7.58,13.5,6.53,26.67,3.44,1.69-.39,3.37-.79,5-1.15,15.31-3.29,31.18-6.3,46.54-9.21,22.48-4.26,45.72-8.66,66.74-13.9,32.22-8.05,76.94,6.85,97.64,32.53,6.92,8.58,14.08,11.12,26.39,9.35,11-1.58,22.31-2.37,33.23-3.13,8.26-.57,16.06-1.12,23.4-2,48.14-5.56,71.58,6.3,96.43,48.86l1,1.78.48,2c10.94,46.35-19.39,102.49-61.24,113.34a164.79,164.79,0,0,1-37.52,5c-5.79.1-13.29,1-16.22,4.9s-5,14.1,2,40.53c23.6,89-1.44,232.41-109.85,270.11-17.43,6.06-24.65,8.57-16.36,36.78,8.39,28.54,7.93,51.92-1.4,71.48-23.81,49.93-30,95.62-18.51,135.81,6.71,23.39-.21,46.53-18.05,60.37s-41.76,14.7-62.65,2.45a1126.51,1126.51,0,0,1-110.48-74.62c-12.49-9.49-17.56-8.94-18.82-8.54-1.55.49-7.12,3.65-13.49,23.72-4.44,14-10.12,28-15.61,41.59-7.12,17.58-13.84,34.19-17.87,50.24-7.07,28.15-23.9,49-45,55.93-17.44,5.67-36.33,1.14-53.32-12.74-37.37-23.74-55.14-31.81-91.54-22.64-17.92,4.51-38.17-.85-57-15.14-3.21-2.44-10.31-7.83-13.93-9a27.89,27.89,0,0,0-3,8c-2.26,8.84-2.07,8.92,8,13.09,4.39,1.83,9.37,3.9,13.72,7.47,14.94,12.22,31.49,22.64,47.51,32.71q5.14,3.22,10.25,6.47c19.13,12.18,31.28,28.64,35.14,47.59,4.05,19.95-1.21,41.25-15.21,61.61-17.35,25.22-42.29,43-66.72,47.46-18.91,3.48-37.62-.7-54.1-12.08-13.15-8.34-26.61-17.19-40.07-26-12.09-7.95-24.17-15.89-36.33-23.66-1.83-1.17-3.66-2.46-5.47-3.75-1.6-1.14-3.75-2.67-5.38-3.62a38.42,38.42,0,0,0-3.64,7.32c-5.36,13.5-4,14.22,4.47,18.91,2.4,1.32,4.79,2.65,7,4.15,36.79,24.87,85.45,57.43,135.51,88.73,45.47,28.42,61.27,86,36.76,133.83-36.74,71.77-37.87,154.45-3.54,260.2,11.36,35,21.18,72.73,30.91,118.73,17.86,82.15-18.48,211.78-118.29,236.12A74.9,74.9,0,0,1,2425.57,1588.6Zm-70.07-152.23,3.66,14.65c5.77,23.2,11.73,47.18,18.72,69.48,7.37,23.54,28.62,45.9,57.79,39.37,82.11-20,112.71-133.89,97.58-203.45-9.67-45.72-19-81.48-30.17-116-36.74-113.18-35.08-202.56,5.22-281.3a74.57,74.57,0,0,0-26.81-97.84c-50.44-31.53-99.36-64.27-136.34-89.27-1.52-1-3.19-1.92-4.84-2.83-10.89-6-31.17-17.13-16.84-53.28,3.51-8.85,9.57-21,21.62-24.59s21.88,3.45,29.07,8.57c1.44,1,2.88,2,4.34,3,12.26,7.83,24.44,15.83,36.63,23.84,13.33,8.77,26.68,17.54,40.15,26.1,10.9,7.51,22.13,10.09,33.86,7.93,17.37-3.2,35.68-16.63,49-36,9.66-14,13.43-28,10.9-40.46-2.36-11.59-10.07-21.62-22.91-29.8-3.36-2.14-6.73-4.26-10.12-6.39-16.73-10.52-34-21.4-50.29-34.71-1.22-1-4.21-2.25-6.85-3.35-10.48-4.35-32.27-13.43-24.11-45.41,1.42-5.54,5.73-22.42,20.51-27.58,15.21-5.29,29.48,5.52,39.89,13.44,11.83,9,24.07,12.75,33.55,10.36,46.52-11.74,71.54-.35,113.84,26.57l1.44,1c9.91,8.27,19.25,11,27.8,8.27,11.67-3.8,22.19-18.08,26.79-36.39,4.49-17.92,11.9-36.2,19.06-53.88,5.29-13.07,10.77-26.59,14.89-39.58,4.8-15.14,13.3-35.94,31.46-41.7,12.79-4,27.14.17,43.87,12.89a1097,1097,0,0,0,107.75,72.78c11.11,6.52,23,6.36,31.74-.45s12-18.44,8.44-30.94c-13.44-46.86-6.67-99.11,20.13-155.3,6.27-13.15,6.21-30.1-.17-51.82-13-44.34,4.08-60.31,33.78-70.64,83.66-29.09,115.75-148.22,92.23-236.95-5.55-20.95-10.27-47.18,2.66-64.27,7.73-10.23,20.45-15.56,37.78-15.85a137.69,137.69,0,0,0,31.05-4.13c26.51-6.87,47.78-47.32,41.71-78.34-18.89-31.79-31.46-37.74-68.32-33.49-8,.92-16.45,1.51-24.65,2.09-10.43.72-21.21,1.47-31.24,2.91-21.84,3.14-38.77-3.2-51.79-19.35-14.19-17.6-47.3-28.6-69.47-23.07-21.79,5.43-45.42,9.91-68.28,14.24-15.19,2.88-30.9,5.86-45.87,9.08-1.51.32-3,.68-4.54,1-13.62,3.21-34.23,8-52.8-11.1-46.38-47.79-99-57.11-175.78-31.18-48.66,16.42-84.34,53.63-95.45,99.52-8,33.19-27.14,52.21-58.41,58.15-34.22,6.49-60.92,31.07-69.67,64.13-11,44.21-42.65,78.28-84.64,90.94-21.11,6.36-42.82,17.52-63.81,28.3l-1,.5c-48.82,25.08-92.65,34.25-147.81-2.45-32-21.29-72.17,3.47-90.51,27.85-36.14,48-44.6,113.13-46.42,147.67-.66,12.55,4.55,24.5,11.37,26.72,1.42-2.59,3-8,4-11.51s1.93-6.62,3-9.6c6.08-16.42,12-32.93,17.95-49.44q4.64-12.94,9.32-25.86c4-11.09,9.71-23,21.51-27.11,7.71-2.72,16-1.4,24.67,3.9,20.08,12.31,25.61,28.73,18.48,54.89-3.6,13.19-6,29.23-8.51,46.22-8.72,58.68-19.53,131.5-91.89,141.16a10.78,10.78,0,0,0-1.48,2.75c-17.38,71-44.2,146.54-84.42,237.68-11.08,25.11,11.61,50.8,29.57,61.93a19.81,19.81,0,0,0,2.91,1.53c2.4-3.88,4.81-14.43,6.17-20.39a171.89,171.89,0,0,1,4.68-17.65c14.78-42.62,29.22-71.1,55.48-81.4,20.21-7.92,44.4-3.72,76.16,13.21,29.64,15.78,63.05,5.54,79.48-24.37,16.72-30.44,50.7-48.36,88.32-46.79,38.58,1.61,71.66,23.09,86.34,56.07,3.3,7.45,3.83,18,1.62,31.48-7.86,47.87-57.78,109.26-111.27,136.86-33.21,17.13-64.14,19.65-89.45,7.25-52.25-25.57-113.39-8.44-142.23,39.85-51.26,85.82-66.44,164.59-47.78,247.9,14.06,50.42,64.55,102.67,117.59,121.62,25.12,9,62.16,14.65,96-9.26,22.91-16.2,40.9-13.84,52-9,19.11,8.35,32.33,30.29,36.29,60.19,6.82,51.5,17.33,108.59,56,134.35S2350.79,1389.9,2355.5,1436.37Z" transform="translate(0 328.09)"/><path class="cls-11" d="M1652.31,2013.76c-11.75,0-22.4-7.36-31.17-13.42-2.51-1.74-5-3.44-7.27-4.82-44.23-26.55-79.2-77.53-96-139.89-2.73-10.14-5.58-20.35-8.45-30.6-7.77-27.84-15.82-56.62-21.62-84.88-13.64-66.42-38-148.14-106.08-190.91-70.37-48.42-92.7-190.5-73.07-259.15,1.93-6.75,5.43-12.89,8.82-18.81,8.46-14.82,9.15-18.64,4.36-24-17.94-20.23-36.7-39.5-51.44-33.64-44.53,17.68-97.62,3.11-157.78-43.28-36.72-28.32-74.69-57.6-116.44-80.64-58.67-31.83-80-94.77-98.91-150.3-2.68-7.9-5.32-15.69-8-23.27-15.83-44.19-83.76-97.43-131.57-91.28C733.17,828,721,853,708.19,879.56c-3.32,6.86-6.76,14-10.4,20.55l-12.87,23.28-11.63-23.93c-23.57-48.52-28.9-87.7-16.28-119.77,11.27-28.62,37.12-50.92,76.82-66.25,121.41-52.76,245-110.74,366.78-172.1l3.13-1.59c19.54-9.93,49-24.93,73.28,5.07,16.51,20.43,19.43,46.92,8.94,81-8.83,28.64,4.65,36.4,36,51.2,2.58,1.22,5.17,2.45,7.75,3.7,23.55,11.43,50.83-12.13,61.45-22.79,6.38-6.39,5.27-13-1.55-31-2.56-6.76-5.21-13.74-6.54-21-.55-3-1.38-6-2.19-9.09-3.46-12.92-8.18-30.61,5.4-46.3,18.49-21.37,40-5.13,48.1,1,1.35,1,2.68,2,4,2.93,16.6,11.48,30.19,12.27,47,2.75,28.57-16.26,56.15-10.12,73.8,16.4,15.43,23.2,17.18,53.23,5,86.85-18.83,52.2-39.11,105.4-58.73,156.86-18.3,48-37.22,97.65-54.48,145.27-15.74,43.4-59.67,61.07-95,75.27-4.24,1.71-8.42,3.39-12.49,5.08-10.52,4.39-17.65,11.53-21.19,21.24-5,13.69-2.79,31.9,5.88,48.72,4.72,9.14,7.31,11.07,8,11.44.07,0,.32-.12.7-.27,49.57-20,91,9.68,124.31,33.55,3.72,2.67,7.38,5.29,11,7.8,10.66,7.43,48.09,30.28,81.81,12.65,42.39-22.16,78.85-20.56,121.91,5.36l4.09,2.46c27.17,16.43,64.39,38.92,94.19,30.48,9.9-2.81,24.87-3,40,12,35.26,34.82,49.64,136.53,41.17,167.94-24.19,89.77-59.1,194.93-100.94,304.1-19.81,51.71-21.85,101.9-6.06,149.17,9.22,27.57,16.53,60.4,22.4,86.78a142.86,142.86,0,0,0,4.28,14c5.23,15.38,11.74,34.52.89,50.29-6.09,8.85-13.48,11.83-18.61,12.77A27,27,0,0,1,1652.31,2013.76ZM1276,1184.87c27.45,0,51.3,26.89,66.52,44.05,18.83,21.24,6.39,43-1,56-2.69,4.71-5.23,9.16-6.25,12.71-17.54,61.38,3.12,188.17,61.71,228.5,76.42,48,103.21,136.62,117.95,208.41,5.61,27.32,13.52,55.63,21.17,83,2.88,10.34,5.76,20.64,8.51,30.86,15,55.53,45.39,100.49,83.49,123.37,2.78,1.65,5.76,3.7,8.81,5.8,4.32,3,12.29,8.5,15.34,8.53,0-.1.41-.48,1-1.27,3-4.34-1.05-16.2-4.29-25.74a165.24,165.24,0,0,1-5.09-16.92c-5.73-25.76-12.87-57.81-21.64-84-17.87-53.49-15.7-110,6.47-167.8,41.5-108.31,76.11-212.53,100.06-301.41,6.65-24.66-7.41-114.94-33.91-141.1-6.87-6.78-11.23-5.56-13.1-5-41.35,11.73-84.5-14.36-116-33.41l-4-2.44c-34.64-20.85-61.24-22.12-94.87-4.54-32.06,16.76-73.32,11.36-110.39-14.46-3.71-2.58-7.48-5.28-11.3-8-30.67-22-62.41-44.74-97.88-30.39-17.08,6.88-31.73-1.21-43.54-24.11-12.14-23.55-14.87-50-7.28-70.84,6.2-17,18.83-29.89,36.5-37.26q6.27-2.61,12.81-5.22c33.33-13.4,67.79-27.26,79.32-59.06,17.34-47.84,36.3-97.58,54.64-145.7C1399.16,756.05,1419.4,703,1438.15,651c6.3-17.47,11.06-42.45-2.07-62.18-6-9-16.32-19.55-37.16-7.7-26,14.8-51,13.47-76.31-4-1.59-1.1-3.23-2.33-4.9-3.59-2.58-2-7.27-5.48-9.45-6.06a8.55,8.55,0,0,0-1.13,1.12c-3.65,4.21-2.73,9.4.39,21.11,1,3.61,2,7.34,2.68,11.24.88,4.82,3,10.35,5.2,16.21,6.44,17,15.26,40.25-4.71,60.28-31.3,31.4-65.22,41.66-93.07,28.14-2.5-1.21-5-2.39-7.5-3.57-28.19-13.33-66.79-31.58-50.55-84.3,7.69-24.93,6.41-42.57-4-55.48-8.91-11-16.38-9.44-39.28,2.19L1113,566C990.78,627.59,866.72,685.79,744.31,739c-33.19,12.83-53.16,29.38-61.6,50.83-7.44,18.87-6.14,42.18,4,70.74,13.52-27.51,31.19-58.47,67.42-63.11,61.68-7.86,141.46,54.58,161.07,109.37,2.76,7.72,5.46,15.65,8.19,23.69,18.07,53.21,36.76,108.24,86,135,43.68,24.11,82.5,54,120,83,51.9,40,95.89,53.32,130.74,39.49A42.26,42.26,0,0,1,1276,1184.87Z" transform="translate(0 328.09)"/><path class="cls-11" d="M3242.14,972.33c-25.07,0-48.45-10.43-64.17-30.36-27-32.05-31.93-79.46-13.34-129.73,24.34-65.79,86.95-130.36,159.58-126.2,75.52,4.22,136.89,88.93,156.35,147.72l.3.83a24.42,24.42,0,0,1,1.75,6.93c.5,5.91,3.59,12.9,6.86,20.3,7,15.79,17.52,39.65-3.44,60.2-21.5,21.07-69.07,47-106.23,28-39.1-12.41-52.68-10.91-89,9.22A100.55,100.55,0,0,1,3242.14,972.33Zm75.66-258.86c-56.68,0-107.53,55-127.27,108.34-7.12,19.26-20.52,67.82,8.84,102.72,20.49,26,53.89,24,78,10.59,43.08-23.85,65.06-26,112-11l2.36,1c22.72,12.29,58.18-6.35,75-22.82,6.4-6.28,5.22-11.89-2.48-29.33-3.75-8.47-8-18-9-28.22l-.09-.24c-.27-.71-.54-1.43-.77-2.15-19.72-59.5-75.64-125.63-131.65-128.76C3321,713.52,3319.41,713.47,3317.8,713.47Zm137.3,130.36v0Z" transform="translate(0 328.09)"/><path class="cls-11" d="M1600.87,554.7c-17.72,0-34-12.12-45.38-22-2.86-2.49-5.79-4.94-8.73-7.41-18.89-15.86-40.3-33.83-48.55-62.8-14.51-51-53.65-81.31-83.92-97.75-15.93-8.66-58.27-31.65-47.51-90l.32-1.7c7-38.14,16.66-90.39,60-112.39,21.34-10.85,43.61-23.24,65.15-35.23q9.21-5.13,18.41-10.23v0l14.83-8.46c14-7.69,28.56-15.67,41.59-22.56,4.8-2.54,10.46-6,16.45-9.68,24.16-14.81,54.26-33.21,82.38-26,14,3.58,25.37,13,33.89,27.88,43.75,76.62,51.55,147.63,24.55,223.47-8.12,22.8-16.67,45.66-25.71,69.87-15.41,41.21-31.35,83.83-44.81,125.7-11.23,34.92-24.43,52.78-42.79,57.9A37.18,37.18,0,0,1,1600.87,554.7Zm-58.07-426,.07.28-9.49,5.2c-9.22,5.06-18.48,10.21-27.74,15.37-21.76,12.11-44.26,24.64-66.07,35.73-31.13,15.81-38.67,56.7-45.32,92.78l-.31,1.7c-5.93,32.15,8.43,47.06,33.53,60.69,34.92,19,80.16,54.24,97.3,114.46,5.93,20.82,22.36,34.62,39.75,49.22,3,2.56,6.09,5.11,9.07,7.7,13.25,11.5,23.61,16.64,30,14.86,4.57-1.27,13.76-8.14,23.93-39.76,13.66-42.48,29.71-85.41,45.23-126.92,9-24.1,17.53-46.87,25.57-69.46,24.43-68.62,17.48-130.46-22.52-200.52-4.74-8.3-10.23-13.15-16.77-14.82-16.85-4.33-41.38,10.72-61.09,22.81-6.37,3.91-12.4,7.6-18,10.54C1568.29,114.76,1555.41,121.8,1542.8,128.73Z" transform="translate(0 328.09)"/><path class="cls-11" d="M1220.42,510.66a63.07,63.07,0,0,1-24.58-5c-16.17-6.75-27-19.95-29.6-36.21-4-24.52,14.08-33.78,22.75-38.24,1.43-.74,2.85-1.45,4.15-2.23,9.33-5.57,18.86-10.58,28.08-15.43,6.52-3.43,13-6.86,19.51-10.49,26.07-14.66,46.6-18.26,62.76-11,13.4,6,22.35,18.79,26.59,38,8.31,37.66-19.11,45.3-32.28,49-3.51,1-9.36,2.61-10.58,3.92l-1.71,2.66-2.64,1.56C1262.36,499.64,1242,510.66,1220.42,510.66ZM1285.79,416c-6.08,0-16,2.31-31.53,11.07-6.69,3.76-13.44,7.31-20.19,10.86-9.3,4.89-18.09,9.51-26.78,14.7-1.78,1.06-3.71,2.07-5.69,3.08-8.86,4.56-8.78,5.09-8.1,9.27,1.4,8.62,7.83,13,13,15.14,17,7.1,33.66.51,59.8-15.26,6.53-7.61,16.18-10.3,24.11-12.51,13.95-3.88,15.41-4.29,12.73-16.41-2.26-10.22-5.93-16.54-10.91-18.77A15.63,15.63,0,0,0,1285.79,416Z" transform="translate(0 328.09)"/><path class="cls-11" d="M3056.31,723.55c-37.19,0-101.33-36.13-119.09-63.54a28.27,28.27,0,0,1-3.5-24c3.12-10.14,11.74-18.62,24.27-23.89l2-.84,2.16-.19c41.43-3.61,103.8,26.23,125.83,60.21,9.06,14,6.31,25.46,3.87,31.06-5.16,11.8-17.59,18.84-27.63,20.58A46.08,46.08,0,0,1,3056.31,723.55Zm-89.53-85.13c-4.55,2.27-6.35,4.65-6.67,5.69-.05.15-.09.3.28.88,14.8,22.83,76.82,54.57,99.1,50.72,2.74-.48,6.3-2.71,7.05-4.43.37-.84-.31-2.8-1.73-5C3050,663.48,3000.66,636.74,2966.78,638.42Z" transform="translate(0 328.09)"/><path class="cls-11" d="M2577.34,1295.39a22.59,22.59,0,0,1-8.42-1.61c-13.14-5.21-16.73-19.85-19.89-32.77-1.37-5.58-2.78-11.34-4.56-14.67l-1-1.85-.39-2.06c-3.83-20.06-15.5-81.12,28-110.23,12-8,21.42-6.89,27.23-4.54,15.52,6.31,19.79,26.41,23.22,42.57.57,2.71,1.12,5.3,1.7,7.65,16.28,66.74-5.73,97.23-27.06,111C2589.5,1293.23,2583.21,1295.39,2577.34,1295.39Zm-7.47-60c2.76,5.91,4.39,12.56,6,19a109.23,109.23,0,0,0,3.55,12.37c.49-.27,1.07-.61,1.74-1,20.1-13,25.23-40.39,15.24-81.33-.63-2.6-1.25-5.47-1.88-8.47-1.25-5.89-3.7-17.44-6.36-21.86a17.08,17.08,0,0,0-1.72,1C2567.66,1167.7,2562.24,1194,2569.87,1235.41Z" transform="translate(0 328.09)"/><path class="cls-11" d="M3158.5,190.78a32,32,0,0,1-23.33-10.94c-6.65-7.6-8.51-17.43-5-26.32,1.72-4.86,3.58-10.36,5.46-15.94,11.68-34.65,24.93-73.93,57-96.5,5-3.53,18-11.24,30.19-6.84C3229.38,36.61,3234,41.85,3236,49l.33,1.57c6.58,44.45-32.64,129.55-72.12,139.5A23.33,23.33,0,0,1,3158.5,190.78ZM3156,163.22s0,0,0,.05A.43.43,0,0,0,3156,163.22Zm.39-1.1a6.07,6.07,0,0,0,1.78,1c20.31-6.32,51.12-63.31,51.33-100.11-.33.21-.67.43-1,.66-24.68,17.37-35.89,50.6-46.73,82.75C3160,151.74,3158.25,157,3156.43,162.12Z" transform="translate(0 328.09)"/><path class="cls-11" d="M3179.67,684.22a23.34,23.34,0,0,1-10.05-2.24c-13-6.13-16.26-22.46-17.33-27.83-4.55-22.81-3.51-62.94,54.55-75.33,2-.43,5.67-2.21,8.9-3.78,9.09-4.42,21.53-10.48,33.63-4.95,7.6,3.47,12.92,10.59,15.82,21.15,5.66,17.71,3.9,35-5.1,49.92-10.29,17.09-29,29.14-51.43,33.05l-1.48.26-.64,0a59.62,59.62,0,0,0-5.67,2.8C3195.37,680.2,3187.87,684.22,3179.67,684.22Zm57.91-88.52a67.88,67.88,0,0,0-9.76,4.17c-4.87,2.37-9.91,4.82-15.22,6-35.32,7.54-36.62,25.93-33.23,42.93a34.81,34.81,0,0,0,2.12,7.3c1.92-.77,4.55-2.18,6.33-3.13,5.07-2.73,10.77-5.79,17.1-6.1,13.86-2.67,25.59-10.06,31.51-19.9,4.88-8.1,5.68-17.35,2.39-27.5l-.21-.7A21,21,0,0,0,3237.58,595.7Z" transform="translate(0 328.09)"/><path class="cls-11" d="M3547,904.06a41,41,0,0,1-21.3-5.85c-17.32-10.39-25.61-32.21-29.53-48.67a74.2,74.2,0,0,0-4-10.37c-4.68-10.75-10.5-24.12-4.92-36.29,2.14-4.65,6.85-10.87,17.17-14.07,40.24-12.45,52.41,22.77,59,41.68a131.79,131.79,0,0,0,6.29,16.07l2,4-.56,3.64a46.94,46.94,0,0,0,3.19,6.34c4,7,9.36,16.66,4.89,27.19-4.53,10.69-16.1,13.73-19.89,14.72A48.36,48.36,0,0,1,3547,904.06Zm-34.32-88.9c.6,3.33,3.27,9.45,4.81,13a93.67,93.67,0,0,1,5.55,15c3.74,15.76,9.89,27.2,16.87,31.39,2.09,1.25,5.51,2.71,11.41,1.41-.37-.68-.75-1.35-1.07-1.93-2.86-5.09-6.28-11.19-6.75-18.18-2.39-5.26-4.33-10.87-6.21-16.32C3528.21,813.2,3524.73,811.45,3512.71,815.16Z" transform="translate(0 328.09)"/><path class="cls-11" d="M1871.47,444a18.66,18.66,0,0,1-7.67-1.64c-12.74-5.74-15.81-23.73-18.29-38.19-.31-1.84-.61-3.59-.91-5.19-.79-4.18-1.82-8.67-2.89-13.38-6.31-27.77-15-65.79,13.44-87.28,7.59-5.74,14.72-7.4,21.16-4.95,10.81,4.13,13.29,16.8,15.69,29.05.83,4.26,2.21,11.28,3.53,13.4l2.68,1.87,2.08,7.92c7.63,28.93,19.18,72.64-15.69,94.22A24.78,24.78,0,0,1,1871.47,444Zm-2.75-129.94c-.32.22-.68.47-1.08.78-16.42,12.42-12.53,36.28-5.73,66.17,1.13,5,2.2,9.71,3,14.12.32,1.71.64,3.58,1,5.56,1,5.77,3.22,18.85,6.11,22.4a10.72,10.72,0,0,0,1.66-.86c20.19-12.5,14.92-39.7,6.57-71.33l-.39-1.46c-4.79-5.61-6.46-14.12-8.2-23A98.09,98.09,0,0,0,1868.72,314.06Z" transform="translate(0 328.09)"/><path class="cls-11" d="M3077.21,593a25,25,0,0,1-12.78-3.37c-11.75-6.83-14.64-21.12-17-32.6a81.26,81.26,0,0,0-2.72-11c-12.71-33.81-3.84-66.22,21.56-78.82,9.23-4.57,17.53-5.08,24.68-1.54,11.57,5.74,14.06,18.76,16.06,29.21.61,3.22,1.54,8.09,2.35,9.52l1.32,2,.78,3.31c6.7,27.16,16.82,68.19-23.27,81.42A35,35,0,0,1,3077.21,593Zm1-100.9c-11.94,6.25-15.07,24.32-7.61,44.17a100.8,100.8,0,0,1,3.93,15.29c.85,4.2,2.21,10.91,3.68,13.69a11.09,11.09,0,0,0,1.36-.38c12.76-4.21,13.8-13.18,5.33-47.78-2.7-5.18-3.85-11.21-5-17.06C3079.5,497.72,3078.88,494.49,3078.21,492.05Z" transform="translate(0 328.09)"/><path class="cls-11" d="M1817.88,466.61a21.53,21.53,0,0,1-9.26-2c-7-3.29-11.87-10.15-14.56-20.39-5.83-22.12-.53-41.65,14.54-53.56,8.92-7.06,16.38-6.8,21.05-5.33,10.95,3.4,16,15.84,19.26,26.3l.18.68c6,25.58-.32,42.86-18.78,51.36A29.7,29.7,0,0,1,1817.88,466.61Zm5.79-61.21a13.39,13.39,0,0,0-2.22,1.47c-10.81,8.55-10,22.15-7.37,32.06,1.32,5,2.89,6.69,3.38,6.92.21.1,1.52.21,4.2-1,4.32-2,12.36-5.69,7.35-27.48C1826.53,409.36,1824.57,406.42,1823.67,405.4Z" transform="translate(0 328.09)"/></g><g class="cls-12"><path class="cls-3" d="M1992.85,278.84c191.5-4.8,449.9,104.76,508,333,55.1,216.5-151,76.68-267.51-52.79C2137.26,452.3,1861.33,282.14,1992.85,278.84Z" transform="translate(0 328.09)"/></g><g class="cls-13"><path class="cls-3" d="M1476.07,261.84c3.9-2.06,7.89-4.06,11.89-6s8-4,12.07-5.91c326.26-156.59,703.5-89.89,956.26,141.38A860.72,860.72,0,0,1,2645.8,642.84c3.89,7.81,7.69,15.66,11.33,23.53a859,859,0,0,1,69,496.14c44.49-183.21,29.54-381.87-55.21-565.17-3.64-7.87-7.45-15.72-11.34-23.52a860.46,860.46,0,0,0-189.51-251.59c-252.76-231.26-630-298-956.25-141.38-4,1.9-8.08,3.92-12.08,5.91s-8,4-11.89,6.05C1237.3,323.65,1076,562.72,1034.48,824.7,1091.5,590.24,1245.87,381.08,1476.07,261.84Z" transform="translate(0 328.09)"/></g><circle class="cls-1" cx="1887.17" cy="1287.32" r="863.27"/><g class="cls-14"><path class="cls-6" d="M2265.65,1669.58c-418.74,208.91-926,45.76-1145.88-363.9-4.11-7.65-8.06-15.4-12-23.19a858.46,858.46,0,0,1-80.13-520.64,860.76,860.76,0,0,0,80.13,248.88c3.9,7.79,7.85,15.54,12,23.19,219.84,409.66,727.14,572.86,1145.88,363.9,259.24-129.29,424.91-371.4,467.23-637.15C2791.06,1123.34,2611.7,1496.94,2265.65,1669.58Z" transform="translate(0 328.09)"/></g><path class="cls-6" d="M1887.91,1855.82a897.53,897.53,0,0,1-272.9-42.68c-223.1-71.12-406.84-223.74-517.37-429.75-4.26-7.92-8.39-16-12.43-24.07A892.17,892.17,0,0,1,994.85,1045C959.69,678.76,1148,332.75,1474.71,163.53c3.9-2.06,8.12-4.17,12.34-6.28s8.49-4.23,12.76-6.24c331.42-159.07,721.11-101.46,992.54,146.9A892,892,0,0,1,2689.1,559.09c4,8.11,8,16.25,11.77,24.43,98.11,212.19,109.56,450.77,32.23,671.78-77.48,221.46-235.81,401.13-445.81,505.9C2161.36,1824,2025.05,1855.82,1887.91,1855.82Zm.51-1727.69c-121.92,0-244.91,27.06-360.31,82.45-4,1.9-7.85,3.8-11.62,5.68S1509,220,1505.26,222c-302.85,156.88-477.35,477.44-444.77,816.77a826.57,826.57,0,0,0,83.72,291.14c3.75,7.51,7.59,15,11.54,22.34,213.57,398,697.67,551.77,1102.1,350s572.73-681,383.16-1091q-5.27-11.37-10.91-22.64h0a826,826,0,0,0-182.26-242C2290.83,202.91,2091.1,128.13,1888.42,128.13Z" transform="translate(0 328.09)"/><g class="cls-15"><path class="cls-16" d="M5045.58,4056.48A325.48,325.48,0,0,0,5036,4019,294.7,294.7,0,0,1,5045.58,4056.48Z" transform="translate(0 328.09)"/></g><path class="cls-4" d="M2496.78,1687.68c-54-180-1.14-258.55-1.14-258.55-411.54-164.12-176-493.83,217.15-231.71,0,0,110.55,78.37,126.69,267.17" transform="translate(0 328.09)"/><g class="cls-5"><path class="cls-6" d="M2731.42,1638.81c62.48-130,7-316.56-138.31-420.24-126.33-90.21-267.41-50.29-302-38.35,18.72-55.72,68.61-77.41,128.93-79.13,104.28-3.06,239.8,53.57,299.66,96.72,0,0,2.54.35,6.51.49,30.61,43,59.94,95.26,84.56,156.29C2884.89,1538.52,2731.42,1638.81,2731.42,1638.81Z" transform="translate(0 328.09)"/></g><path class="cls-6" d="M2482.48,1692c-34.59-84.47-65.42-200.26-23.32-287.42l20.19,65.42c-415.66-159.48-251-538.86,142.86-371.27a714.72,714.72,0,0,1,117.29,65.57c86.28,72.62,130.7,189.7,115,299-2.3,15.85-25.19,17.62-30,2.57-15.81-44.78-31.22-86.54-51.45-124.93-19.76-38.2-45.24-73.47-74.64-100.31-3.55-3.12-7.48-6.54-10.21-8.51-31.76-20.6-65.57-39.86-100.18-54.87-72.83-30.42-162.42-53.94-233.1-13-47.47,29.1-34.28,84.16-1.81,120.78,41.26,48.16,99,78.41,158.83,103.27l20.19,65.43c.91-2-.95.57-1.68,1.53-34.57,57.42-31.35,130.94-24.37,196.08l5,32.08.12.8c2.72,17.31-22.28,24.28-28.73,7.79Z" transform="translate(0 328.09)"/><path class="cls-3" d="M3201.53,1988.05a1347.11,1347.11,0,0,0,47.22,684.73,1384.25,1384.25,0,0,0,54.45,136.79c10.05,21.95,20.91,43.82,32.25,65.65a1387.74,1387.74,0,0,0,401.6,468.85q32,23.55,64.95,45.28C4205.12,3653.8,4733.85,3702,5189.47,3470c671.25-341.69,929.38-1162,576.77-1832.19a1383.88,1383.88,0,0,0-252.56-340.86c-11.45-11.51-23.29-22.74-35.34-33.7q-48-44.31-99.64-83.59a1404.69,1404.69,0,0,0-533.53-249.84q-45.77-10.56-92.25-18a1372.85,1372.85,0,0,0-140.57-15.2c-235.29-13.7-476.54,32.6-700.13,146.48C3526.08,1239.57,3276.73,1594.47,3201.53,1988.05Z" transform="translate(0 328.09)"/><path class="cls-6" d="M4568,3623.57a1402.23,1402.23,0,0,1-768.88-229.87c-22.07-14.55-44-29.85-65.18-45.45a1396.2,1396.2,0,0,1-403.13-470.61c-12.47-24-23.06-45.57-32.37-65.91a1397.08,1397.08,0,0,1-54.65-137.29,1357,1357,0,0,1-47.4-687.36c78.76-412.22,338.79-758,713.43-948.68a1374.53,1374.53,0,0,1,702.79-147,1391.81,1391.81,0,0,1,141.09,15.27c30.51,4.88,61.67,11,92.6,18.1a1410.08,1410.08,0,0,1,535.51,250.77c34.38,26.18,68,54.41,100,83.91,12.65,11.5,24.6,22.9,35.5,33.85,101.05,99.62,186.34,214.73,253.47,342.11,171.88,326.66,205.53,698.46,94.76,1046.91-109.9,345.7-349.18,627.09-673.77,792.32C4996.14,3574.27,4782.12,3623.57,4568,3623.57ZM3201.53,1988.05l5.1,1a1346.66,1346.66,0,0,0,47,682.09,1389.65,1389.65,0,0,0,54.25,136.29c9.25,20.19,19.76,41.59,32.14,65.43a1382.27,1382.27,0,0,0,400.1,467.06c21,15.5,42.8,30.7,64.71,45.13A1392.11,1392.11,0,0,0,4568,3613.19c212.51,0,424.84-48.91,619.08-147.84,322.1-164,559.54-443.18,668.59-786.21,109.92-345.79,76.52-714.76-94.05-1038.94C5695,1513.78,5610.36,1399.52,5510,1300.62c-10.82-10.86-22.64-22.14-35.19-33.56-31.77-29.3-65.16-57.32-99.29-83.3A1399.84,1399.84,0,0,0,4844,934.85c-30.7-7.09-61.62-13.13-91.9-18a1379,1379,0,0,0-140-15.15,1363.7,1363.7,0,0,0-697.49,145.92C3542.82,1236.87,3284.78,1580,3206.63,1989Z" transform="translate(0 328.09)"/><g class="cls-5"><path class="cls-6" d="M5189.49,3469.94c-455.62,232.12-984.42,183.88-1387.49-80.63q-33-21.7-64.91-45.24a1391.19,1391.19,0,0,1-401.68-468.84c-11.26-21.85-22.15-43.68-32.25-65.63a1401.06,1401.06,0,0,1-54.4-136.84c-76.34-226.15-89.92-461.5-47.22-684.75a1347.68,1347.68,0,0,1,119.87-353.08,1346.76,1346.76,0,0,0,52.74,653.85,1371.43,1371.43,0,0,0,54.39,136.84c10,21.92,20.92,43.75,32.25,65.63a1386.52,1386.52,0,0,0,401.6,468.81q32,23.58,65,45.27c403.07,264.5,931.78,312.72,1387.49,80.63,265.87-135.32,466.83-345.79,590.76-592.16C5838,2899.8,5585.7,3268.29,5189.49,3469.94Z" transform="translate(0 328.09)"/></g><path class="cls-6" d="M4568.06,3658.35a1437,1437,0,0,1-788-235.57c-22.64-14.92-45.07-30.56-66.74-46.53a1430.79,1430.79,0,0,1-413.27-482.41c-12.83-24.7-23.66-46.76-33.22-67.63a1430.21,1430.21,0,0,1-56-140.63c-76.58-226.84-93.4-470.63-48.62-705h0c80.79-422.85,347.53-777.55,731.82-973.15a1417.65,1417.65,0,0,1,865.13-135.13c31.31,5,63.25,11.25,94.95,18.56a1445,1445,0,0,1,548.75,257c35.26,26.86,69.75,55.79,102.54,86,12.89,11.74,25.26,23.54,36.56,34.89,103.37,101.9,190.8,219.89,259.6,350.42,176.26,335,210.74,716.29,97.13,1073.68-112.74,354.64-358.19,643.29-691.13,812.79C5007,3607.79,4787.52,3658.35,4568.06,3658.35ZM3240.8,1995.55c-42.2,220.89-26.35,450.65,45.82,664.44a1349.13,1349.13,0,0,0,52.88,132.83c9.05,19.76,19.31,40.65,31.42,64a1347.5,1347.5,0,0,0,390,455.17c20.45,15.08,41.73,29.91,63.13,44a1357.26,1357.26,0,0,0,744,222.44c207.11,0,414-47.67,603.33-144.07,313.74-159.72,545-431.67,651.22-765.76,107.08-336.85,74.52-696.32-91.68-1012.2-65-123.24-147.48-234.62-245.26-331q-16-16-34.17-32.6c-31.14-28.72-63.69-56-97-81.36A1364.39,1364.39,0,0,0,4836.2,968.75c-29.95-6.91-60.09-12.81-89.59-17.52a1343.25,1343.25,0,0,0-136.48-14.77,1328.7,1328.7,0,0,0-679.77,142.19c-362.11,184.31-613.44,518.51-689.56,916.9Z" transform="translate(0 328.09)"/><path class="cls-6" d="M4568.06,3662.35a1441.07,1441.07,0,0,1-790.19-236.21c-22.7-15-45.18-30.66-66.91-46.67a1434.87,1434.87,0,0,1-414.44-483.76c-12.87-24.78-23.73-46.9-33.31-67.83a1433.7,1433.7,0,0,1-56.13-141c-76.8-227.49-93.66-472-48.75-707.06h0c81-424.08,348.53-779.81,733.93-976a1413.48,1413.48,0,0,1,722.64-151.2,1430.37,1430.37,0,0,1,144.94,15.68c31.4,5,63.43,11.29,95.22,18.62a1448.75,1448.75,0,0,1,550.27,257.69c35.37,26.93,70,56,102.83,86.27,12.93,11.75,25.35,23.6,36.69,35,103.63,102.15,191.31,220.47,260.3,351.37,176.77,336,211.35,718.34,97.41,1076.77-113.06,355.67-359.22,645.16-693.13,815.13C5008.23,3611.65,4788.14,3662.35,4568.06,3662.35Zm-1323.33-1666h0a1307.85,1307.85,0,0,0,45.69,662.41,1347.94,1347.94,0,0,0,52.72,132.43c9,19.72,19.26,40.54,31.34,63.81a1344,1344,0,0,0,388.78,453.79c20.39,15,41.61,29.82,62.95,43.9,403.46,264.66,918.23,294.65,1343.3,78.14,312.78-159.22,543.34-430.33,649.22-763.39,106.75-335.82,74.29-694.2-91.41-1009.13a1339.56,1339.56,0,0,0-244.52-330q-15.93-16-34.06-32.48c-31.07-28.66-63.52-55.89-96.68-81.14a1361.06,1361.06,0,0,0-516.75-242c-29.87-6.89-59.92-12.76-89.33-17.46a1340.91,1340.91,0,0,0-136.07-14.73,1325.25,1325.25,0,0,0-677.73,141.76C3571.2,1266,3320.64,1599.16,3244.73,1996.3Z" transform="translate(0 328.09)"/><path class="cls-6" d="M3181,2336.23C3450,3275.7,4551.46,3666.16,5208.73,2964,5655.9,2486.22,5524.25,1677.21,5029,1274.8c-360.49-292.87-839.63-423.91-1443.87,1.36,0,0-237.68,229.6-307.4,455s-99,456.83-99,456.83Z" transform="translate(0 328.09)"/><path class="cls-17" d="M5208.69,2963.94c-657.23,702.2-1758.75,311.71-2027.69-627.69l-.45-30c586.61,683,1605.07,840.14,2283.08,142.6C5429.6,2637.57,5346.66,2816.49,5208.69,2963.94Z" transform="translate(0 328.09)"/><path class="cls-6" d="M4411.78,3509.8c-356.92,0-716.29-151.39-990.25-418.14l-2.46-2.4-2.07-2.76a1434,1434,0,0,1-120.48-190.79c-12.87-24.78-23.73-46.9-33.31-67.83a1433.7,1433.7,0,0,1-56.13-141c-76.8-227.49-93.66-472-48.75-707.06h0c81-424.08,348.53-779.81,733.93-976a1413.48,1413.48,0,0,1,722.64-151.2l4.51.27,4.36,1.17c176.68,47.54,350.64,140.19,517,275.38,299.59,243.4,494.72,627.24,521.94,1026.75,24.54,360.07-87.52,692.51-315.53,936.1-248,264.93-561.46,409.19-906.38,417.17Q4426.33,3509.8,4411.78,3509.8ZM3485.37,3031c264.27,256.1,611.44,398.43,953.44,390.49,320.76-7.42,612.68-142.05,844.2-389.34,211.15-225.57,314.85-534.54,292-870-25.6-375.62-208.65-736.16-489.65-964.47C4930,1071.49,4768.47,984.86,4605.27,940.2a1324.77,1324.77,0,0,0-673.09,142c-361,183.75-611.56,516.91-687.45,914.08a1307.85,1307.85,0,0,0,45.69,662.41,1347.94,1347.94,0,0,0,52.72,132.43c9,19.72,19.26,40.54,31.34,63.81A1344.59,1344.59,0,0,0,3485.37,3031Z" transform="translate(0 328.09)"/><path class="cls-3" d="M5719,3305c-157.82,216.41-420.05,303.82-585.74,195.17S4961.22,3128,5119,2911.61c1-1.37,2.05-2.78,3.09-4.11,158.09-213.41,418.14-299,582.65-191.05,128,83.92,160.91,260.29,96.54,435.94C5782.33,3204.09,5754.9,3255.82,5719,3305Z" transform="translate(0 328.09)"/><g class="cls-5"><path class="cls-6" d="M5719,3305c-157.82,216.41-420.05,303.82-585.74,195.17S4961.22,3128,5119,2911.61c1-1.37,2.05-2.78,3.09-4.11,2,34.15,14.42,74.61,58.21,92.43,76.71,31.18,298.93-28.81,298.93-28.81s140.17,77.7,322,181.27C5782.33,3204.09,5754.9,3255.82,5719,3305Z" transform="translate(0 328.09)"/></g><path class="cls-6" d="M5296.65,3590.26c-67.88,0-132.34-17.13-187.49-53.3-75-49.21-124-126.11-141.5-222.4-25-137.31,17.23-293.63,115.86-428.88,171.17-234.72,460.7-327.12,645.42-206,75,49.22,124,126.12,141.5,222.4,25,137.32-17.22,293.64-115.86,428.9C5634.51,3495.62,5456.17,3590.26,5296.65,3590.26Zm242.68-876.93c-130.84,0-281.45,82.56-384.73,224.18-83.27,114.18-120.8,249.23-100.39,361.29,13.11,72,48.8,128.93,103.2,164.61,146.1,95.82,382.12,13.16,526.09-184.27,83.27-114.18,120.8-249.24,100.39-361.3-13.11-72-48.8-128.92-103.2-164.59C5639.39,2726.17,5590.88,2713.33,5539.33,2713.33Z" transform="translate(0 328.09)"/><ellipse class="cls-3" cx="5488.65" cy="3208.65" rx="385.56" ry="291.46" transform="translate(-554.88 5510.7) rotate(-48.4)"/><path class="cls-6" d="M5398.09,3561.37a285,285,0,0,1-68.29-8.1c-68.18-16.83-122.84-60.1-153.89-121.85-75.57-150.24,2.77-372.53,174.63-495.51,95.84-68.59,204.08-94.76,296.95-71.87,68.19,16.82,122.84,60.09,153.89,121.84,75.57,150.25-2.78,372.54-174.63,495.52h0C5553.64,3533.72,5473.31,3561.37,5398.09,3561.37Zm181.07-694.66c-73,0-151.07,27-222.34,78-167.73,120-244.56,336.21-171.28,481.91,30.05,59.74,80.83,99.92,146.85,116.22,89.81,22.17,194.81-3.42,288.08-70.16,167.72-120,244.56-336.22,171.28-481.91-30.05-59.74-80.82-99.93-146.85-116.22A274,274,0,0,0,5579.16,2866.71Z" transform="translate(0 328.09)"/><g class="cls-5"><path class="cls-6" d="M5169.3,3179.07c27.1-67.8,73.13-128.23,129.25-175.66-48.61,159.91,31.52,297.48,189.2,314.36,101.89,10.95,212.74-31.12,299.53-104.56-3,10.11-6.67,20.36-10.76,30.65-69.09,172.61-261,298-428.71,280.13S5100.28,3351.6,5169.3,3179.07Z" transform="translate(0 328.09)"/></g><path class="cls-6" d="M5379.27,3596.77c-51.27,0-99.71-12.82-141.56-39.8-56.63-36.51-93.67-94.43-107.12-167.48-20.48-111.26,17.66-246.18,102-360.93,145.1-197.31,374.08-277.53,521.25-182.66,56.62,36.5,93.66,94.41,107.11,167.46,20.48,111.26-17.67,246.19-102,360.93C5655.11,3515.5,5508.3,3596.77,5379.27,3596.77Zm234.85-702c-101.15,0-225.63,70.32-310.62,185.9-70.27,95.56-102.56,205-86.39,292.88,6.23,33.88,23.14,80.38,68.26,109.47,104.61,67.45,289-6.23,402.7-160.85,70.27-95.56,102.57-205.06,86.4-292.89-6.24-33.88-23.14-80.37-68.25-109.45C5679.8,2902.81,5648.28,2894.78,5614.12,2894.78Z" transform="translate(0 328.09)"/><g class="cls-18"><path class="cls-3" d="M5044.54,1703.58s-476.23-339.6-935.68-285.9l-1.45.17a544.71,544.71,0,0,0-265.23,107c-101.86,77.21-160.47,145.37-209.71,207.38-149.66,188.64-183.87,305.25-183.87,305.25-30.13-185.46-1.89-347,121.18-505.32q18.25-23.37,39.31-46.79c3.22-3.6,6.48-7.1,9.83-10.58-.05-.1,0-.16.23-.19a1334.87,1334.87,0,0,1,123-105.11C3895,1254.21,4128.71,1131,4383.33,1188.56,4859.44,1296.28,5076,1696.3,5044.54,1703.58Z" transform="translate(0 328.09)"/></g><g class="cls-18"><ellipse class="cls-3" cx="4979.08" cy="2449.98" rx="211.48" ry="184.1" transform="translate(794.61 6422.77) rotate(-67.26)"/></g><g class="cls-18"><ellipse class="cls-3" cx="4827.52" cy="2803.05" rx="87.36" ry="75.99" transform="translate(708.29 6898.63) rotate(-72.59)"/></g></g></g></g></svg>